<svg width="70" height="70" viewBox="0 0 70 70" fill="none" xmlns="http://www.w3.org/2000/svg">
<path d="M68.0404 53.9039L53.8976 44.4724C52.1029 43.2851 49.6971 43.6758 48.3702 45.3701L44.2506 50.6669C43.7212 51.365 42.7588 51.5675 41.9929 51.142L41.2092 50.71C38.6114 49.294 35.3792 47.5312 28.8667 41.0164C22.3542 34.5017 20.5879 31.2669 19.1719 28.6739L18.7422 27.8903C18.3109 27.1245 18.5096 26.158 19.2079 25.6244L24.5012 21.506C26.1948 20.179 26.586 17.7739 25.4001 15.9786L15.9686 1.83582C14.7532 0.00763464 12.3148 -0.541176 10.4332 0.589876L4.51925 4.14241C2.66105 5.23485 1.29775 7.00409 0.715239 9.07939C-1.41437 16.8389 0.187716 30.2306 19.9149 49.9601C35.6074 65.6514 47.2898 69.8714 55.3195 69.8714C57.1674 69.8791 59.0082 69.6387 60.7922 69.1563C62.8679 68.5745 64.6374 67.211 65.7291 65.3523L69.2852 59.4419C70.4179 57.5599 69.8694 55.12 68.0404 53.9039ZM67.2788 58.2471L63.7309 64.1611C62.947 65.5027 61.6743 66.4891 60.1795 66.9137C53.0162 68.8804 40.5013 67.2514 21.5624 48.3125C2.62352 29.3737 0.994693 16.8599 2.96138 9.69547C3.38656 8.19886 4.37421 6.92454 5.71744 6.13939L11.6314 2.59149C12.4478 2.10027 13.5061 2.33838 14.0335 3.13171L19.1569 10.8237L23.4571 17.2732C23.972 18.0519 23.8028 19.0957 23.0682 19.6719L17.7737 23.7903C16.1625 25.0223 15.7023 27.2516 16.6943 29.0208L17.1148 29.7847C18.6029 32.514 20.4531 35.9093 27.2077 42.6629C33.9624 49.4163 37.3566 51.2666 40.0847 52.7546L40.8497 53.1761C42.6188 54.168 44.8481 53.708 46.0802 52.0968L50.1986 46.8023C50.7749 46.068 51.8182 45.899 52.5972 46.4134L66.7387 55.845C67.5326 56.372 67.7707 57.4308 67.2788 58.2471Z" fill="#1235C4"/>
<path d="M39.594 11.6516C50.5213 11.6638 59.3765 20.5191 59.3888 31.4464C59.3888 32.0894 59.91 32.6107 60.5531 32.6107C61.1962 32.6107 61.7174 32.0894 61.7174 31.4464C61.7039 19.2335 51.8069 9.33631 39.594 9.32294C38.9509 9.32294 38.4297 9.84418 38.4297 10.4873C38.4297 11.1304 38.9509 11.6516 39.594 11.6516Z" fill="#1235C4"/>
<path d="M39.594 18.638C46.6644 18.6463 52.3941 24.376 52.4024 31.4464C52.4024 32.0895 52.9238 32.6107 53.5667 32.6107C54.2098 32.6107 54.7311 32.0895 54.7311 31.4464C54.7214 23.0903 47.95 16.3189 39.594 16.3093C38.9509 16.3093 38.4297 16.8306 38.4297 17.4737C38.4297 18.1168 38.9509 18.638 39.594 18.638Z" fill="#1235C4"/>
<path d="M39.594 25.6243C42.8078 25.6282 45.4121 28.2325 45.416 31.4464C45.416 32.0895 45.9374 32.6107 46.5804 32.6107C47.2234 32.6107 47.7447 32.0895 47.7447 31.4464C47.7396 26.947 44.0934 23.3007 39.594 23.2957C38.9509 23.2957 38.4297 23.8169 38.4297 24.46C38.4297 25.1031 38.9509 25.6243 39.594 25.6243Z" fill="#1235C4"/>
</svg>
