<svg width="70" height="70" viewBox="0 0 70 70" fill="none" xmlns="http://www.w3.org/2000/svg">
<path d="M69.9824 26.7593C69.9751 26.6789 69.9591 26.5994 69.9345 26.5225C69.9185 26.4537 69.8962 26.3866 69.8681 26.3218C69.8354 26.2585 69.7963 26.1986 69.7514 26.1432C69.7065 26.0775 69.6544 26.0169 69.5963 25.9623C69.5775 25.9461 69.5695 25.9238 69.5496 25.9075L58.3298 17.1937V8.16265C58.3298 6.22972 56.7628 4.66265 54.8298 4.66265H42.1866L37.1243 0.732124C35.8738 -0.243228 34.1201 -0.243228 32.8695 0.732124L27.8061 4.66265H15.1629C13.23 4.66265 11.6629 6.22958 11.6629 8.16265V17.1939L0.44666 25.9076C0.426836 25.9241 0.418633 25.9462 0.400039 25.9625C0.341934 26.0169 0.289844 26.0776 0.244863 26.1434C0.20002 26.1987 0.160918 26.2585 0.128242 26.3219C0.0999414 26.3866 0.077793 26.4538 0.0617969 26.5226C0.0374609 26.5985 0.0214648 26.6767 0.0139453 26.756C0.0139453 26.7805 0 26.8015 0 26.826V66.4959C0.00164062 67.238 0.241719 67.9599 0.684824 68.555C0.691797 68.5655 0.693027 68.5784 0.701094 68.5877C0.709297 68.597 0.726797 68.6075 0.738418 68.6204C1.39385 69.4828 2.41322 69.9912 3.49645 69.9959H66.4964C67.5839 69.9926 68.6075 69.4817 69.2638 68.6146C69.2731 68.603 69.2871 68.5994 69.2952 68.5878C69.3034 68.5762 69.3045 68.5657 69.3116 68.5551C69.7547 67.9599 69.9948 67.238 69.9964 66.496V26.8293C69.9964 26.8048 69.9836 26.7837 69.9824 26.7593ZM34.2963 2.57304C34.7037 2.24929 35.2807 2.24929 35.6881 2.57304L38.3796 4.66251H31.6129L34.2963 2.57304ZM3.79039 67.6627L34.2964 43.9664C34.7041 43.6432 35.2807 43.6432 35.6882 43.9664L66.2024 67.6627H3.79039ZM67.6631 65.8437L37.1243 42.1254C35.8735 41.1508 34.1203 41.1508 32.8695 42.1254L2.32969 65.8437V28.6061L21.4479 43.452C21.9573 43.8469 22.6904 43.7542 23.0854 43.2448C23.4804 42.7354 23.3877 42.0023 22.8782 41.6073L3.45557 26.5259L11.6631 20.1477V29.1625C11.6631 29.8069 12.1855 30.3291 12.8297 30.3291C13.474 30.3291 13.9963 29.8067 13.9963 29.1625V8.16251C13.9963 7.51816 14.5186 6.99589 15.1629 6.99589H54.8296C55.4739 6.99589 55.9962 7.51816 55.9962 8.16251V29.1625C55.9962 29.8069 56.5184 30.3291 57.1628 30.3291C57.8071 30.3291 58.3294 29.8067 58.3294 29.1625V20.1477L66.5369 26.5259L47.0805 41.6343C46.7458 41.8879 46.5731 42.3019 46.6286 42.7182C46.6841 43.1345 46.9591 43.4889 47.3486 43.646C47.7381 43.803 48.182 43.7388 48.5108 43.4775L67.6631 28.6061V65.8437Z" fill="#1235C4"/>
<path d="M48.9961 27.9959V23.3293C48.9961 15.5973 42.7281 9.32928 34.9961 9.32928C27.2641 9.32928 20.9961 15.5973 20.9961 23.3293C20.9961 31.0613 27.2641 37.3293 34.9961 37.3293C35.6404 37.3293 36.1627 36.807 36.1627 36.1627C36.1627 35.5183 35.6404 34.996 34.9961 34.996C28.5528 34.996 23.3295 29.7727 23.3295 23.3294C23.3295 16.8861 28.5528 11.6628 34.9961 11.6628C41.4394 11.6628 46.6627 16.8861 46.6627 23.3294V27.996C46.6627 29.2848 45.618 30.3294 44.3293 30.3294C43.0406 30.3294 41.996 29.2848 41.996 27.996V23.3294C41.996 22.6851 41.4737 22.1628 40.8293 22.1628C40.185 22.1628 39.6627 22.6851 39.6627 23.3294C39.6627 25.9067 37.5734 27.996 34.9961 27.996C32.4188 27.996 30.3295 25.9067 30.3295 23.3294C30.3295 20.7521 32.4188 18.6628 34.9961 18.6628C35.6404 18.6628 36.1627 18.1405 36.1627 17.4962C36.1627 16.8518 35.6404 16.3296 34.9961 16.3296C31.8632 16.3226 29.1071 18.3981 28.2485 21.4111C27.3899 24.4241 28.6377 27.6407 31.3037 29.2863C33.9697 30.9318 37.4044 30.6056 39.7129 28.4874C39.9669 30.9546 42.1113 32.7891 44.5881 32.658C47.0651 32.5268 49.0039 30.4763 48.9961 27.9959Z" fill="#1235C4"/>
</svg>
