<svg width="70" height="70" viewBox="0 0 70 70" fill="none" xmlns="http://www.w3.org/2000/svg">
<path d="M22.9657 47.3693C25.8485 51.434 28.7267 55.0693 30.6342 57.4108C30.9119 57.7515 31.1721 58.0676 31.424 58.3721H25.6678C25.0234 58.3721 24.5012 58.8943 24.5012 59.5387C24.5012 60.183 25.0234 60.7053 25.6678 60.7053H44.3343C44.9786 60.7053 45.5009 60.183 45.5009 59.5387C45.5009 58.8943 44.9786 58.3721 44.3343 58.3721H38.578C38.83 58.0676 39.0901 57.7514 39.369 57.4108C41.2753 55.0774 44.1524 51.434 47.0364 47.3693C49.8978 43.4175 52.4733 39.2664 54.7433 34.9479C57.1257 30.2695 58.3344 26.3857 58.3344 23.4038C58.3423 17.2075 55.8836 11.263 51.5012 6.88254C51.2085 6.57903 50.7748 6.45707 50.3668 6.56358C49.9589 6.67008 49.64 6.98836 49.533 7.3962C49.4259 7.80403 49.5472 8.23784 49.8503 8.53096C53.7949 12.4745 56.008 17.8258 56.001 23.4036C56.001 26.0147 54.8787 29.5426 52.6644 33.8885C50.4456 38.1069 47.9285 42.1617 45.1324 46.0218C42.2881 50.034 39.4449 53.6285 37.5608 55.9385C36.9344 56.7061 36.3708 57.3851 35.8901 57.9592C35.6657 58.2154 35.3417 58.3622 35.0012 58.3622C34.6606 58.3622 34.3366 58.2152 34.1122 57.9592C33.6315 57.3852 33.0681 56.7061 32.4415 55.9385C30.5574 53.6297 27.7142 50.0351 24.8699 46.0218C22.0739 42.1617 19.5567 38.1069 17.3379 33.8885C15.1213 29.5426 14.0013 26.0147 14.0013 23.4036C14.0006 14.9532 19.0543 7.32182 26.8347 4.02416C32.0625 1.83202 37.9518 1.83202 43.1797 4.02416C43.5636 4.18686 44.005 4.13258 44.338 3.88143C44.6709 3.63041 44.8445 3.22081 44.7935 2.80696C44.7425 2.39311 44.4747 2.03791 44.0908 1.87522C32.2102 -3.1358 18.5167 2.43057 13.502 14.3095C12.2859 17.1869 11.6622 20.2799 11.668 23.4036C11.668 26.3856 12.8768 30.2695 15.2591 34.9536C17.5289 39.2703 20.1046 43.4194 22.9657 47.3693Z" fill="#1235C4"/>
<path d="M35.0001 12.8722C35.6444 12.8722 36.1667 12.3499 36.1667 11.7056C36.1667 11.0612 35.6444 10.5389 35.0001 10.5389C29.4343 10.5389 24.6434 14.4706 23.5574 19.9295C22.4714 25.3884 25.393 30.8541 30.5351 32.9842C35.6772 35.1143 41.608 33.3152 44.7003 28.6874C47.7926 24.0596 47.1851 17.8918 43.2495 13.9561C42.9566 13.6528 42.5229 13.5312 42.1149 13.6379C41.7071 13.7447 41.3885 14.0633 41.2818 14.4711C41.175 14.8791 41.2967 15.3127 41.5999 15.6057C44.7485 18.7542 45.2346 23.6883 42.7609 27.3906C40.2873 31.093 35.5427 32.5323 31.429 30.8286C27.3152 29.1248 24.9779 24.7522 25.8463 20.385C26.7148 16.0178 30.5474 12.8723 35.0001 12.8722Z" fill="#1235C4"/>
<path d="M69.5605 63.705L62.3855 50.8716C61.7368 49.7314 60.5229 49.0306 59.2111 49.0387H50.8962C50.2519 49.0387 49.7296 49.5611 49.7296 50.2054C49.7296 50.8498 50.2519 51.372 50.8962 51.372H59.2111C59.6781 51.363 60.1138 51.6065 60.3509 52.009L67.5236 64.8424C67.7189 65.1763 67.7148 65.5904 67.513 65.9204C67.2747 66.3142 66.8438 66.55 66.3837 66.5388H3.61712C3.15747 66.5497 2.72708 66.3137 2.48892 65.9204C2.28712 65.5904 2.28316 65.1763 2.47839 64.8424L9.65107 52.009C9.88773 51.6066 10.323 51.3631 10.7897 51.372H19.1045C19.7488 51.372 20.2711 50.8498 20.2711 50.2054C20.2711 49.5611 19.7488 49.0387 19.1045 49.0387H10.7898C9.4773 49.0302 8.26241 49.731 7.613 50.8716L0.439094 63.705C-0.159051 64.7616 -0.145242 66.0577 0.475324 67.1012C1.12911 68.2125 2.328 68.8883 3.61712 68.8723H66.3837C67.6725 68.8879 68.8709 68.2122 69.5244 67.1012C70.145 66.0575 70.1588 64.7616 69.5605 63.705Z" fill="#1235C4"/>
<path d="M57.1675 54.8722H52.5009C52.2705 54.8726 52.0454 54.9407 51.8534 55.0682L48.3534 57.4016C47.8173 57.7593 47.6727 58.4838 48.0302 59.0198C48.3879 59.5559 49.1123 59.7006 49.6484 59.343L52.8509 57.2057H57.1675C57.8119 57.2057 58.3341 56.6833 58.3341 56.0391C58.3341 55.3945 57.8119 54.8722 57.1675 54.8722Z" fill="#1235C4"/>
<path d="M50.168 63.0388C50.168 63.6832 50.6902 64.2054 51.3346 64.2054H60.668C61.3123 64.2054 61.8346 63.6832 61.8346 63.0388C61.8346 62.3945 61.3123 61.8722 60.668 61.8722H51.3346C50.6902 61.8722 50.168 62.3945 50.168 63.0388Z" fill="#1235C4"/>
<path d="M21.0012 59.5388C21.5155 59.5395 21.9696 59.2032 22.119 58.711C22.2685 58.2188 22.0779 57.6868 21.6499 57.4015L18.1499 55.0681C17.9577 54.9404 17.732 54.8722 17.5012 54.8721H12.8346C12.1902 54.8721 11.668 55.3945 11.668 56.0387C11.668 56.683 12.1904 57.2053 12.8346 57.2053H17.1512L20.3573 59.3426C20.548 59.4701 20.7721 59.5383 21.0012 59.5388Z" fill="#1235C4"/>
<path d="M9.33459 61.8722C8.69023 61.8722 8.16797 62.3945 8.16797 63.0388C8.16797 63.6832 8.69023 64.2054 9.33459 64.2054H18.668C19.3123 64.2054 19.8346 63.6832 19.8346 63.0388C19.8346 62.3945 19.3123 61.8722 18.668 61.8722H9.33459Z" fill="#1235C4"/>
</svg>
