<svg width="150" height="22" viewBox="0 0 150 22" fill="none" xmlns="http://www.w3.org/2000/svg">
<path d="M12.455 0.265872C14.9281 0.265872 17.4011 0.177277 19.8741 0.265872C23.5162 0.398763 25 1.94917 25.045 5.49294C25.045 9.16961 25.0899 12.8463 25.045 16.5229C25.045 19.6238 23.6511 21.3513 20.5486 21.4842C15.2428 21.6614 9.93705 21.7057 4.63129 21.5285C1.52878 21.4399 0.089928 19.7566 0.044964 16.6558C0 12.8906 0 9.16961 0 5.40435C0 1.99346 1.52878 0.398763 5.03597 0.265872C7.50899 0.177277 9.98201 0.221574 12.455 0.265872C12.455 0.221574 12.455 0.265872 12.455 0.265872ZM18.75 10.8972C18.5701 5.04997 20.1888 4.73989 12.6799 4.73989C5.08093 4.78419 6.33993 4.6513 6.29496 11.0301C6.29496 17.0545 5.08093 17.0545 12.455 17.0545C20.054 17.0988 18.6151 16.9659 18.75 10.8972Z" fill="#1235C4"/>
<path d="M92.4013 0.265694C94.9643 0.265694 97.4823 0.177099 100.045 0.265694C103.283 0.398585 104.811 2.03758 104.811 5.13839C104.811 8.99225 104.856 12.8018 104.811 16.6557C104.811 19.6679 103.328 21.4398 100.27 21.5284C95.0542 21.6612 89.7934 21.6612 84.5326 21.5284C81.3851 21.4398 79.9463 19.7122 79.9463 16.6557C79.9463 12.8018 79.9463 8.99225 79.9463 5.13839C79.9913 1.99329 81.565 0.354288 84.7125 0.265694C87.2754 0.177099 89.8384 0.265694 92.4013 0.265694ZM98.5164 10.897C98.4715 4.47393 99.4157 4.78401 92.7161 4.73971C85.0722 4.73971 86.2862 4.47393 86.2862 11.1185C86.2862 17.01 85.1172 17.0543 92.3114 17.01C99.6855 17.0543 98.3815 17.3201 98.5164 10.897Z" fill="#1235C4"/>
<path d="M32.959 21.5286C30.6209 21.6615 28.7324 21.7943 26.6641 21.4843C26.6641 14.4853 26.6641 7.57494 26.6641 0.708876C27.1587 0.133012 27.7882 0.265903 28.3727 0.265903C34.3079 0.265903 40.1982 0.221606 46.1335 0.265903C49.9105 0.265903 51.4392 1.81631 51.5292 5.49297C51.709 13.2007 50.9446 13.998 43.0759 13.998C39.7936 13.998 36.5112 13.998 32.959 13.998C32.959 16.523 32.959 18.915 32.959 21.5286ZM32.8691 4.78422C32.8691 6.15743 32.8691 7.17627 32.8691 8.1951C32.8691 8.99245 33.2288 9.43543 34.0382 9.43543C37.2306 9.43543 40.468 9.52402 43.6605 9.39113C45.459 9.30254 45.1892 7.79643 45.2342 6.51181C45.2792 5.27149 44.6497 4.78422 43.4806 4.78422C40.0633 4.78422 36.6461 4.78422 32.8691 4.78422Z" fill="#1235C4"/>
<path d="M119.02 6.3788C116.907 11.1629 114.928 15.3711 113.13 19.668C112.5 21.1741 111.646 21.8385 109.982 21.6613C108.454 21.5284 106.88 21.617 104.901 21.617C108.274 14.8839 111.331 8.41647 114.748 2.12627C116.277 -0.708755 121.718 -0.708755 123.247 2.12627C126.664 8.41647 129.677 14.8839 133.049 21.617C130.711 21.617 128.777 21.5727 126.844 21.617C125.63 21.6613 125.405 20.7311 125.045 19.9337C123.112 15.5926 121.178 11.2072 119.02 6.3788Z" fill="#1235C4"/>
<path d="M150 21.617C147.932 21.617 146.043 21.617 143.93 21.617C143.93 16.1685 143.93 10.8085 143.93 5.27135C142.986 5.18275 142.311 5.09416 141.547 5.00556C141.547 3.72094 141.547 2.56921 141.547 1.37319C144.2 -0.0443211 147.032 0.310057 150 0.354354C150 7.39761 150 14.3966 150 21.617Z" fill="#2B2E40"/>
<path d="M53.3721 13.4663C53.3721 11.783 53.3721 10.1883 53.3721 8.41638C61.5555 8.41638 69.739 8.41638 78.0573 8.41638C78.0573 10.0554 78.0573 11.6944 78.0573 13.4663C69.8289 13.4663 61.6454 13.4663 53.3721 13.4663Z" fill="#2B2E40"/>
<path d="M53.417 21.4842C53.417 19.7123 53.417 18.0733 53.417 16.39C61.6454 16.39 69.7839 16.39 78.0573 16.39C78.0573 18.0733 78.0573 19.7123 78.0573 21.4842C69.8738 21.4842 61.6904 21.4842 53.417 21.4842Z" fill="#2B2E40"/>
<path d="M53.3721 5.35996C53.3721 3.63236 53.3721 2.03766 53.3721 0.35437C61.6454 0.35437 69.8289 0.35437 78.1023 0.35437C78.1023 2.03766 78.1023 3.63236 78.1023 5.35996C69.9188 5.35996 61.7803 5.35996 53.3721 5.35996Z" fill="#2B2E40"/>
<path d="M139.253 11.6502C139.028 13.555 138.084 14.7953 136.151 14.8396C134.217 14.8839 133.093 13.7321 133.003 11.8717C132.958 9.96688 134.082 8.81515 135.971 8.77085C137.949 8.63796 138.894 9.87828 139.253 11.6502Z" fill="#1235C4"/>
</svg>
